<svg width="59" height="56" viewBox="0 0 59 56" fill="none" xmlns="http://www.w3.org/2000/svg">
<g filter="url(#filter0_d_0_129)">
<circle cx="24" cy="32" r="24" fill="white"/>
</g>
<mask id="mask0_0_129" style="mask-type:luminance" maskUnits="userSpaceOnUse" x="16" y="22" width="17" height="21">
<path fill-rule="evenodd" clip-rule="evenodd" d="M16 22.0004H32.2848V42.0013H16V22.0004Z" fill="white"/>
</mask>
<g mask="url(#mask0_0_129)">
<path fill-rule="evenodd" clip-rule="evenodd" d="M29.6047 32.6289C29.6167 31.0699 30.4327 29.6329 31.7647 28.8199C30.9247 27.6129 29.5697 26.8709 28.1047 26.8199C26.5417 26.6599 25.1047 27.7299 24.2727 27.7299C23.4447 27.7299 22.2727 26.8399 20.9717 26.8589C19.2457 26.9179 17.6747 27.8789 16.8347 29.3909C15.0737 32.4489 16.3817 36.9999 18.1437 39.4689C18.9447 40.6799 19.9447 42.0509 21.2647 41.9999C22.5847 41.9489 23.0147 41.1799 24.5427 41.1799C26.0737 41.1799 26.5417 41.9999 27.8427 41.9689C29.1437 41.9419 30.0657 40.7309 30.9057 39.5199C31.4997 38.6409 31.9637 37.6799 32.2847 36.6719C30.6637 35.9809 29.6087 34.3909 29.6047 32.6289ZM27.0847 25.1909C27.8467 24.3089 28.2297 23.1599 28.1437 21.9999C26.9837 22.0939 25.9057 22.6409 25.1437 23.5199C24.4057 24.3709 24.0457 25.4879 24.1437 26.6089C25.2927 26.6209 26.3777 26.0939 27.0847 25.1909Z" fill="#1D1D1B"/>
</g>
<defs>
<filter id="filter0_d_0_129" x="-9" y="0" width="68" height="68" filterUnits="userSpaceOnUse" color-interpolation-filters="sRGB">
<feFlood flood-opacity="0" result="BackgroundImageFix"/>
<feColorMatrix in="SourceAlpha" type="matrix" values="0 0 0 0 0 0 0 0 0 0 0 0 0 0 0 0 0 0 127 0" result="hardAlpha"/>
<feOffset dx="1" dy="2"/>
<feGaussianBlur stdDeviation="5"/>
<feColorMatrix type="matrix" values="0 0 0 0 0 0 0 0 0 0 0 0 0 0 0 0 0 0 0.1 0"/>
<feBlend mode="normal" in2="BackgroundImageFix" result="effect1_dropShadow_0_129"/>
<feBlend mode="normal" in="SourceGraphic" in2="effect1_dropShadow_0_129" result="shape"/>
</filter>
</defs>
</svg>
