<svg width="116" height="158" viewBox="0 0 116 158" fill="none" xmlns="http://www.w3.org/2000/svg">
<path fill-rule="evenodd" clip-rule="evenodd" d="M110.2 88.9333H5.8C2.5984 88.9333 0 86.3349 0 83.1333V5.8C0 2.5984 2.5984 0 5.8 0H110.2C113.402 0 116 2.5984 116 5.8V83.1333C116 86.3349 113.402 88.9333 110.2 88.9333Z" fill="#0455BF"/>
<path fill-rule="evenodd" clip-rule="evenodd" d="M98.6 81.2H11.6C9.4656 81.2 7.73334 79.4677 7.73334 77.3333V11.6C7.73334 9.4656 9.4656 7.73334 11.6 7.73334H96.6667C98.8011 7.73334 100.533 9.4656 100.533 11.6V79.2667C100.533 80.3339 99.6672 81.2 98.6 81.2Z" fill="#FDFEFF"/>
<path fill-rule="evenodd" clip-rule="evenodd" d="M11.6 77.3333V11.6C11.6 9.4656 13.3323 7.73334 15.4667 7.73334H11.6C9.4656 7.73334 7.73334 9.4656 7.73334 11.6V77.3333C7.73334 79.4677 9.4656 81.2 11.6 81.2H15.4667C13.3323 81.2 11.6 79.4677 11.6 77.3333Z" fill="#DFEAEF"/>
<path fill-rule="evenodd" clip-rule="evenodd" d="M75.4 44.4667C75.4 54.0741 67.6074 61.8667 58 61.8667C48.3926 61.8667 40.6 54.0741 40.6 44.4667C40.6 34.8593 48.3926 27.0667 58 27.0667C67.6074 27.0667 75.4 34.8593 75.4 44.4667Z" fill="#0455BF"/>
<path fill-rule="evenodd" clip-rule="evenodd" d="M65.7333 52.2C65.7333 50.8209 66.4783 49.5526 67.6667 48.8669C65.0992 47.346 61.8461 49.2098 61.8667 52.2V58C63.1659 58 64.4651 57.8479 65.7333 57.5566V52.2Z" fill="#004787"/>
<path fill-rule="evenodd" clip-rule="evenodd" d="M61.8667 58C55.3217 58.0103 49.3309 54.3447 46.3588 48.5138C43.3892 42.6854 43.9434 35.6868 47.7894 30.3894C43.6624 33.3797 41.0537 38.0222 40.6516 43.0979C40.2469 48.1735 42.09 53.1667 45.6963 56.7704C49.2897 60.3664 54.2854 62.2095 59.3585 61.8074C64.4341 61.4027 69.087 58.7965 72.0669 54.6669C69.1077 56.8323 65.5323 58 61.8667 58Z" fill="#004787"/>
<path fill-rule="evenodd" clip-rule="evenodd" d="M54.1333 52.2C53.0661 52.2 52.2 51.3339 52.2 50.2667V38.6667C52.2 37.2257 53.7106 36.2899 54.9995 36.9344L66.5995 42.7344C67.7775 43.3299 68.0301 44.8997 67.1021 45.8251C66.8005 46.1293 66.8005 46.1293 54.9995 51.9886C54.7262 52.1304 54.4349 52.2 54.1333 52.2Z" fill="#FEBC00"/>
<path fill-rule="evenodd" clip-rule="evenodd" d="M66.5992 42.7347L66.2203 42.5439L58.8659 46.1992C57.577 46.8436 56.0664 45.9079 56.0664 44.4669V37.4683L54.9992 36.9347C53.7103 36.2902 52.1998 37.226 52.1998 38.6669V50.2669C52.1894 51.7079 53.7 52.6436 54.9889 52.0095C66.7797 46.1476 66.7797 46.1476 67.0916 45.846C68.0196 44.9103 67.767 43.3379 66.5889 42.7553L66.5992 42.7347Z" fill="#EDAA03"/>
<path fill-rule="evenodd" clip-rule="evenodd" d="M36.7333 65.7333H19.3333V69.6H73.4666V65.7333H36.7333Z" fill="#0455BF"/>
<path fill-rule="evenodd" clip-rule="evenodd" d="M108.267 40.6C110.401 40.6 112.133 42.7344 112.133 44.4667C112.133 46.6011 110.401 48.3333 108.267 48.3333C106.132 48.3333 104.4 46.1989 104.4 44.4667C104.4 42.3323 106.132 40.6 108.267 40.6Z" fill="#FEBC00"/>
<path fill-rule="evenodd" clip-rule="evenodd" d="M110.2 46.4C107.39 46.4103 105.519 43.5 106.686 40.9532C104.209 42.0487 103.603 45.3019 105.519 47.2146C107.442 49.1376 110.685 48.5344 111.79 46.0572C111.288 46.2788 110.744 46.4 110.2 46.4Z" fill="#EDAA03"/>
<path fill-rule="evenodd" clip-rule="evenodd" d="M92.8 77.3333C90.6656 77.3333 88.9334 79.0656 88.9334 81.2V75.4C88.9334 70.2445 81.2 70.2445 81.2 75.4V67.6667C81.2 62.5111 73.4667 62.5111 73.4667 67.6667V52.2C73.4667 47.0445 65.7334 47.0445 65.7334 52.2V91.1992C65.7334 93.3439 63.1453 94.4111 61.6347 92.9005L54.1334 85.3992C52.6331 83.8474 50.1455 83.8293 48.6246 85.358C47.096 86.8789 47.1141 89.3664 48.6659 90.8667L56.8632 99.0743L60.3149 102.518C63.8902 106.091 65.9035 110.945 65.9035 116H91.6632V115.276C91.6632 112.497 92.5371 109.788 94.1585 107.522C95.7902 105.266 96.6667 102.557 96.6667 99.7781V81.2C96.6667 79.0656 94.9344 77.3333 92.8 77.3333Z" fill="#ECC19C"/>
<path fill-rule="evenodd" clip-rule="evenodd" d="M30.9333 71.5333C27.4894 71.5333 25.7675 67.3651 28.1957 64.9291C30.6317 62.5008 34.8 64.2228 34.8 67.6667C34.8 69.8011 33.0677 71.5333 30.9333 71.5333Z" fill="#FEBC00"/>
<path fill-rule="evenodd" clip-rule="evenodd" d="M32.8667 69.6C30.0569 69.6103 28.1854 66.7 29.3531 64.1531C26.8759 65.2487 26.2701 68.5018 28.1854 70.4146C30.1084 72.3376 33.3513 71.7344 34.4571 69.2571C33.9545 69.4788 33.4106 69.6 32.8667 69.6Z" fill="#EDAA03"/>
<path fill-rule="evenodd" clip-rule="evenodd" d="M48.6656 85.3989C48.9079 85.1669 49.1786 84.9659 49.4622 84.7957C46.5699 83.1021 43.0461 85.6619 43.7524 88.9331H47.6191C47.3458 87.6545 47.7402 86.3244 48.6656 85.3989ZM61.8664 88.9331H65.7331V81.1997H61.8664V88.9331Z" fill="#004787"/>
<mask id="mask0_0_29" style="mask-type:luminance" maskUnits="userSpaceOnUse" x="0" y="0" width="116" height="116">
<path fill-rule="evenodd" clip-rule="evenodd" d="M0 116H116V0H0V116Z" fill="white"/>
</mask>
<g mask="url(#mask0_0_29)">
<path fill-rule="evenodd" clip-rule="evenodd" d="M61.8666 81.2H65.7333V69.6H61.8666V81.2ZM65.7333 60.0339C65.2796 60.2556 64.8182 60.4669 64.3542 60.6474C64.1918 60.7093 64.032 60.7685 63.8593 60.8304C63.4262 60.9902 62.9854 61.1217 62.5317 61.2429C62.3409 61.2918 62.1296 61.3537 61.9259 61.4027L61.8563 61.4233V65.7333H65.723L65.7333 60.0339Z" fill="#DFEAEF"/>
<path fill-rule="evenodd" clip-rule="evenodd" d="M65.7333 57.5569C64.465 57.8482 63.1658 58.0003 61.8666 58.0003V61.4132L61.9362 61.4029C62.7637 61.2019 63.568 60.9492 64.3542 60.6476C64.8259 60.4569 65.2899 60.2661 65.7333 60.0238V57.5569ZM61.8666 69.6003H65.7333V65.7336H61.8666V69.6003Z" fill="#004787"/>
</g>
<g clip-path="url(#clip0_0_29)">
<path d="M20.3761 140V120.41C20.3761 120.29 20.3861 120.08 20.4061 119.78C20.4261 119.48 20.4361 119.25 20.4361 119.09C20.4361 117.59 19.9161 116.85 18.8761 116.87C17.4761 116.87 16.5961 116.9 16.2361 116.96C15.0961 117.1 14.2461 117.45 13.6861 118.01C13.1861 118.45 12.6361 119 12.0361 119.66V116.69C12.0361 116.31 12.2861 116.1 12.7861 116.06C14.1861 116.02 20.1661 116.02 30.7261 116.06C31.5661 116.06 32.0161 116.37 32.0761 116.99V119.54C31.2761 118.44 30.4461 117.69 29.5861 117.29C28.9461 117.03 27.5861 116.91 25.5061 116.93C24.7061 116.95 24.1961 117.22 23.9761 117.74C23.8561 118.04 23.7961 118.68 23.7961 119.66V138.8C23.7961 139.54 23.4661 139.94 22.8061 140H20.3761ZM40.5574 138.53C39.4374 139.17 38.4674 139.49 37.6474 139.49C37.4074 139.51 37.1774 139.52 36.9574 139.52C34.9574 139.52 33.5574 138.63 32.7574 136.85C32.4374 136.11 32.2474 135.23 32.1874 134.21L32.2174 131.54H42.0874C42.8874 131.46 43.3174 131 43.3774 130.16C43.3774 129.08 43.1074 127.78 42.5674 126.26C42.1674 125.12 41.6274 124.13 40.9474 123.29C40.2674 122.43 39.5474 121.79 38.7874 121.37C38.1074 120.99 37.3774 120.8 36.5974 120.8C34.6974 120.8 33.0274 121.71 31.5874 123.53C29.7074 125.91 28.7674 128.61 28.7674 131.63C28.7674 133.83 29.3474 135.72 30.5074 137.3C31.5074 138.7 32.8874 139.58 34.6474 139.94C35.5074 140.12 36.2674 140.21 36.9274 140.21C38.6074 140.21 40.1974 139.72 41.6974 138.74C42.5974 138.14 43.0474 137.68 43.0474 137.36C43.0474 137.22 42.9774 137.15 42.8374 137.15C42.6974 137.15 42.3974 137.31 41.9374 137.63C41.2374 138.11 40.7774 138.41 40.5574 138.53ZM34.1674 122.51C34.8274 122.01 35.5274 121.76 36.2674 121.76C37.5274 121.76 38.4674 122.39 39.0874 123.65C39.6674 124.83 40.0074 126.43 40.1074 128.45C40.1274 129.15 40.1174 129.64 40.0774 129.92C40.0574 130.06 40.0174 130.18 39.9574 130.28C39.7974 130.54 39.5574 130.71 39.2374 130.79H32.1874C32.2274 128.03 32.2574 126.55 32.2774 126.35C32.4974 124.59 33.1274 123.31 34.1674 122.51ZM50.65 114.14V138.8C50.65 139.54 50.16 139.94 49.18 140H47.11V115.25C47.11 114.55 47.44 114.18 48.1 114.14H50.65ZM66.2269 138.53C65.1069 139.17 64.1369 139.49 63.3169 139.49C63.0769 139.51 62.8469 139.52 62.6269 139.52C60.6269 139.52 59.2269 138.63 58.4269 136.85C58.1069 136.11 57.9169 135.23 57.8569 134.21L57.8869 131.54H67.7569C68.5569 131.46 68.9869 131 69.0469 130.16C69.0469 129.08 68.7769 127.78 68.2369 126.26C67.8369 125.12 67.2969 124.13 66.6169 123.29C65.9369 122.43 65.2169 121.79 64.4569 121.37C63.7769 120.99 63.0469 120.8 62.2669 120.8C60.3669 120.8 58.6969 121.71 57.2569 123.53C55.3769 125.91 54.4369 128.61 54.4369 131.63C54.4369 133.83 55.0169 135.72 56.1769 137.3C57.1769 138.7 58.5569 139.58 60.3169 139.94C61.1769 140.12 61.9369 140.21 62.5969 140.21C64.2769 140.21 65.8669 139.72 67.3669 138.74C68.2669 138.14 68.7169 137.68 68.7169 137.36C68.7169 137.22 68.6469 137.15 68.5069 137.15C68.3669 137.15 68.0669 137.31 67.6069 137.63C66.9069 138.11 66.4469 138.41 66.2269 138.53ZM59.8369 122.51C60.4969 122.01 61.1969 121.76 61.9369 121.76C63.1969 121.76 64.1369 122.39 64.7569 123.65C65.3369 124.83 65.6769 126.43 65.7769 128.45C65.7969 129.15 65.7869 129.64 65.7469 129.92C65.7269 130.06 65.6869 130.18 65.6269 130.28C65.4669 130.54 65.2269 130.71 64.9069 130.79H57.8569C57.8969 128.03 57.9269 126.55 57.9469 126.35C58.1669 124.59 58.7969 123.31 59.8369 122.51ZM87.2095 125.78C87.0695 124.56 86.6795 123.53 86.0395 122.69C85.3395 121.75 84.4195 121.16 83.2795 120.92C82.8595 120.82 82.3795 120.76 81.8395 120.74C80.2995 120.68 78.8495 121.06 77.4895 121.88C77.0095 122.16 76.5595 122.45 76.1395 122.75C75.3195 123.35 74.6495 123.95 74.1295 124.55C73.8495 124.89 73.7095 125.11 73.7095 125.21C73.7095 125.27 73.7295 125.32 73.7695 125.36C73.9295 125.46 74.3595 125.26 75.0595 124.76C75.6995 124.3 76.3295 123.84 76.9495 123.38C77.7495 122.8 78.4195 122.42 78.9595 122.24C79.3795 122.1 79.8195 122.03 80.2795 122.03C80.8195 122.03 81.3695 122.12 81.9295 122.3C83.3295 122.74 84.0295 124.51 84.0295 127.61C84.0295 127.99 84.0195 128.41 83.9995 128.87C83.9795 129.31 83.9695 129.54 83.9695 129.56C83.9695 129.68 83.9195 129.74 83.8195 129.74C83.6395 129.74 83.3595 129.57 82.9795 129.23C82.3395 128.65 81.5295 128.19 80.5495 127.85C79.8895 127.61 79.2095 127.49 78.5095 127.49C77.5295 127.49 76.6595 127.71 75.8995 128.15C73.8195 129.35 72.7795 131.34 72.7795 134.12C72.7795 135.32 72.9995 136.45 73.4395 137.51C73.7395 138.23 74.1595 138.8 74.6995 139.22C75.3595 139.74 76.1995 140 77.2195 140C77.9595 140 78.6895 139.87 79.4095 139.61C80.0495 139.39 80.6295 139.09 81.1495 138.71C82.1695 137.97 83.1495 136.88 84.0895 135.44V138.95C84.1495 139.65 84.5295 140 85.2295 140H86.5195H87.4195V130.91C87.4195 128.69 87.3495 126.98 87.2095 125.78ZM83.3995 134.9C82.0795 137.1 80.5995 138.1 78.9595 137.9C77.2995 137.7 76.3795 136.45 76.1995 134.15C76.0995 132.85 76.2495 131.69 76.6495 130.67C76.8095 130.23 77.1195 129.8 77.5795 129.38C78.0395 128.94 78.4895 128.69 78.9295 128.63C79.6695 128.53 80.4595 128.73 81.2995 129.23C81.7995 129.51 82.3295 129.96 82.8895 130.58C83.4695 131.2 83.8495 131.77 84.0295 132.29C84.0895 132.47 84.1195 132.66 84.1195 132.86C84.1195 133.42 83.8795 134.1 83.3995 134.9ZM107.441 115.28C107.401 114.5 107.111 114.11 106.571 114.11H104.051V115.28V123.98C104.051 124.5 103.951 124.76 103.751 124.76C103.611 124.76 103.421 124.57 103.181 124.19C101.541 121.91 99.8107 120.77 97.9907 120.77C97.3907 120.77 96.8107 120.91 96.2507 121.19C95.4307 121.73 94.6907 122.4 94.0307 123.2C92.4907 125.12 91.5307 127.57 91.1507 130.55C91.0107 136.85 92.9807 140 97.0607 140C97.6807 139.9 98.3307 139.63 99.0107 139.19C100.651 138.13 102.331 136.26 104.051 133.58V138.95C104.111 139.65 104.521 140 105.281 140H107.441V115.28ZM103.961 130.61C103.801 132.13 103.001 133.74 101.561 135.44C100.841 136.32 100.031 137.03 99.1307 137.57C98.7107 137.83 98.2907 137.96 97.8707 137.96C96.9707 137.96 96.2207 137.44 95.6207 136.4C94.7607 134.96 94.3307 133.18 94.3307 131.06C94.3307 129.62 94.5607 128.22 95.0207 126.86C95.7607 124.56 96.6207 123.03 97.6007 122.27C97.9207 122.03 98.2607 121.91 98.6207 121.91C99.4007 121.91 100.271 122.5 101.231 123.68C102.051 124.66 102.681 125.54 103.121 126.32C103.861 127.62 104.141 129.05 103.961 130.61Z" fill="#332DA1"/>
<path d="M9.38152 152.779H11.9115V154H7.84152V146.322H9.38152V152.779ZM14.4303 147.565V149.49H17.0153V150.711H14.4303V152.746H17.3453V154H12.8903V146.311H17.3453V147.565H14.4303ZM23.4528 152.537H20.3948L19.8888 154H18.2718L21.0328 146.311H22.8258L25.5868 154H23.9588L23.4528 152.537ZM23.0348 151.305L21.9238 148.093L20.8128 151.305H23.0348ZM30.5789 154L28.8849 151.008H28.1589V154H26.6189V146.322H29.5009C30.0949 146.322 30.6009 146.428 31.0189 146.641C31.4369 146.846 31.7485 147.129 31.9539 147.488C32.1665 147.84 32.2729 148.236 32.2729 148.676C32.2729 149.182 32.1262 149.64 31.8329 150.051C31.5395 150.454 31.1032 150.733 30.5239 150.887L32.3609 154H30.5789ZM28.1589 149.853H29.4459C29.8639 149.853 30.1755 149.754 30.3809 149.556C30.5862 149.351 30.6889 149.068 30.6889 148.709C30.6889 148.357 30.5862 148.086 30.3809 147.895C30.1755 147.697 29.8639 147.598 29.4459 147.598H28.1589V149.853ZM40.2327 154H38.6927L35.2057 148.731V154H33.6657V146.311H35.2057L38.6927 151.591V146.311H40.2327V154ZM49.1167 146.322V147.565H45.9157V149.534H48.3687V150.755H45.9157V154H44.3757V146.322H49.1167ZM54.1687 154L52.4747 151.008H51.7487V154H50.2087V146.322H53.0907C53.6847 146.322 54.1907 146.428 54.6087 146.641C55.0267 146.846 55.3384 147.129 55.5437 147.488C55.7564 147.84 55.8627 148.236 55.8627 148.676C55.8627 149.182 55.716 149.64 55.4227 150.051C55.1294 150.454 54.693 150.733 54.1137 150.887L55.9507 154H54.1687ZM51.7487 149.853H53.0357C53.4537 149.853 53.7654 149.754 53.9707 149.556C54.176 149.351 54.2787 149.068 54.2787 148.709C54.2787 148.357 54.176 148.086 53.9707 147.895C53.7654 147.697 53.4537 147.598 53.0357 147.598H51.7487V149.853ZM60.8196 154.077C60.1009 154.077 59.4409 153.908 58.8396 153.571C58.2382 153.234 57.7616 152.768 57.4096 152.174C57.0576 151.573 56.8816 150.894 56.8816 150.139C56.8816 149.391 57.0576 148.72 57.4096 148.126C57.7616 147.525 58.2382 147.055 58.8396 146.718C59.4409 146.381 60.1009 146.212 60.8196 146.212C61.5456 146.212 62.2056 146.381 62.7996 146.718C63.4009 147.055 63.8739 147.525 64.2186 148.126C64.5706 148.72 64.7466 149.391 64.7466 150.139C64.7466 150.894 64.5706 151.573 64.2186 152.174C63.8739 152.768 63.4009 153.234 62.7996 153.571C62.1982 153.908 61.5382 154.077 60.8196 154.077ZM60.8196 152.702C61.2816 152.702 61.6886 152.599 62.0406 152.394C62.3926 152.181 62.6676 151.881 62.8656 151.492C63.0636 151.103 63.1626 150.652 63.1626 150.139C63.1626 149.626 63.0636 149.178 62.8656 148.797C62.6676 148.408 62.3926 148.111 62.0406 147.906C61.6886 147.701 61.2816 147.598 60.8196 147.598C60.3576 147.598 59.9469 147.701 59.5876 147.906C59.2356 148.111 58.9606 148.408 58.7626 148.797C58.5646 149.178 58.4656 149.626 58.4656 150.139C58.4656 150.652 58.5646 151.103 58.7626 151.492C58.9606 151.881 59.2356 152.181 59.5876 152.394C59.9469 152.599 60.3576 152.702 60.8196 152.702ZM74.2633 146.322V154H72.7233V149.006L70.6663 154H69.5003L67.4323 149.006V154H65.8923V146.322H67.6413L70.0833 152.031L72.5253 146.322H74.2633ZM84.7759 146.322V154H83.2359V150.733H79.9469V154H78.4069V146.322H79.9469V149.479H83.2359V146.322H84.7759ZM89.8557 154.077C89.137 154.077 88.477 153.908 87.8757 153.571C87.2744 153.234 86.7977 152.768 86.4457 152.174C86.0937 151.573 85.9177 150.894 85.9177 150.139C85.9177 149.391 86.0937 148.72 86.4457 148.126C86.7977 147.525 87.2744 147.055 87.8757 146.718C88.477 146.381 89.137 146.212 89.8557 146.212C90.5817 146.212 91.2417 146.381 91.8357 146.718C92.437 147.055 92.91 147.525 93.2547 148.126C93.6067 148.72 93.7827 149.391 93.7827 150.139C93.7827 150.894 93.6067 151.573 93.2547 152.174C92.91 152.768 92.437 153.234 91.8357 153.571C91.2344 153.908 90.5744 154.077 89.8557 154.077ZM89.8557 152.702C90.3177 152.702 90.7247 152.599 91.0767 152.394C91.4287 152.181 91.7037 151.881 91.9017 151.492C92.0997 151.103 92.1987 150.652 92.1987 150.139C92.1987 149.626 92.0997 149.178 91.9017 148.797C91.7037 148.408 91.4287 148.111 91.0767 147.906C90.7247 147.701 90.3177 147.598 89.8557 147.598C89.3937 147.598 88.983 147.701 88.6237 147.906C88.2717 148.111 87.9967 148.408 87.7987 148.797C87.6007 149.178 87.5017 149.626 87.5017 150.139C87.5017 150.652 87.6007 151.103 87.7987 151.492C87.9967 151.881 88.2717 152.181 88.6237 152.394C88.983 152.599 89.3937 152.702 89.8557 152.702ZM103.299 146.322V154H101.759V149.006L99.7024 154H98.5364L96.4684 149.006V154H94.9284V146.322H96.6774L99.1194 152.031L101.561 146.322H103.299ZM106.362 147.565V149.49H108.947V150.711H106.362V152.746H109.277V154H104.822V146.311H109.277V147.565H106.362Z" fill="black"/>
</g>
<defs>
<clipPath id="clip0_0_29">
<rect width="103" height="45" fill="white" transform="translate(7 113)"/>
</clipPath>
</defs>
</svg>
